Coordinates
version=1
nRows=13
nColumns=40
inDegrees=yes

Units are S.I. units (second, meters, Newtons, ...)
If the header above contains a line with 'inDegrees', this indicates whether rotational values are in degrees (yes) or radians (no).

endheader
time	pelvis_tilt	pelvis_list	pelvis_rotation	pelvis_tx	pelvis_ty	pelvis_tz	hip_flexion_r	hip_adduction_r	hip_rotation_r	knee_angle_r	knee_angle_r_beta	ankle_angle_r	subtalar_angle_r	mtp_angle_r	hip_flexion_l	hip_adduction_l	hip_rotation_l	knee_angle_l	knee_angle_l_beta	ankle_angle_l	subtalar_angle_l	mtp_angle_l	lumbar_extension	lumbar_bending	lumbar_rotation	arm_flex_r	arm_add_r	arm_rot_r	elbow_flex_r	pro_sup_r	wrist_flex_r	wrist_dev_r	arm_flex_l	arm_add_l	arm_rot_l	elbow_flex_l	pro_sup_l	wrist_flex_l	wrist_dev_l
      7.32500000	     88.26747706	     55.55945969	     88.43826862	      0.39364339	      0.59667127	      0.80770576	     65.30412941	    -10.34817850	     -6.81858130	     24.60967280	      0.42951982	     -6.21269993	      0.00000000	      0.00000000	     63.29406512	    -15.62534202	    -14.60197119	     24.57079421	      0.42884126	     -4.01162821	      0.00000000	      0.00000000	    -53.98133753	     -7.88093097	     -1.17251610	     69.85203903	     -0.60745851	      5.57459888	      9.13203291	     32.87099810	      0.00000000	      0.00000000	     67.80748910	     -0.89905304	    -21.38480360	     21.24347080	     35.69250021	      0.00000000	      0.00000000
      7.33000000	     88.28719814	     55.70987608	     88.48090828	      0.39344071	      0.59693306	      0.80849540	     65.01157218	    -10.37551045	     -6.93016520	     24.42975223	      0.42637961	     -6.24254878	      0.00000000	      0.00000000	     62.96659708	    -15.54594921	    -14.60208386	     24.25117116	      0.42326278	     -4.21756322	      0.00000000	      0.00000000	    -53.95541723	     -7.89919528	     -1.14727894	     69.37214446	     -0.77217144	      6.01597424	      9.57534809	     33.64289284	      0.00000000	      0.00000000	     67.21300222	     -1.27905512	    -19.16115089	     21.57852226	     36.24496958	      0.00000000	      0.00000000
      7.33500000	     88.25500805	     55.88397250	     88.45188334	      0.39320771	      0.59736392	      0.80928137	     64.74930238	    -10.32088677	     -6.94689830	     24.30508530	      0.42420376	     -6.36512593	      0.00000000	      0.00000000	     62.63266058	    -15.59175231	    -14.76584731	     24.04442732	      0.41965442	     -4.37246293	      0.00000000	      0.00000000	    -53.95412837	     -7.99961075	     -1.12320068	     69.32568802	     -0.70183470	      5.98484398	      9.31416656	     33.89869404	      0.00000000	      0.00000000	     66.85256148	     -1.44720457	    -18.45568643	     21.84926854	     36.44874682	      0.00000000	      0.00000000
      7.34000000	     88.24449693	     55.84002782	     88.44390219	      0.39310548	      0.59761328	      0.80973253	     64.67805814	    -10.27647899	     -6.92436133	     24.10100157	      0.42064183	     -6.50460609	      0.00000000	      0.00000000	     62.52561025	    -15.55977091	    -14.73325782	     23.76241103	      0.41473231	     -4.57376287	      0.00000000	      0.00000000	    -53.69776371	     -8.04087771	     -1.10440139	     69.12064649	     -0.64854457	      5.82757050	      9.27711473	     33.96241902	      0.00000000	      0.00000000	     66.54956855	     -1.50725552	    -18.31159497	     21.94327685	     36.49575431	      0.00000000	      0.00000000
      7.34500000	     88.25325127	     55.88924854	     88.42772448	      0.39278575	      0.59795293	      0.81016392	     64.55431126	    -10.25779630	     -7.03604693	     24.03036244	      0.41940894	     -6.57731582	      0.00000000	      0.00000000	     62.38194379	    -15.58099895	    -14.78405261	     23.64271472	      0.41264322	     -4.61395498	      0.00000000	      0.00000000	    -53.52052250	     -8.02987768	     -1.06750712	     69.03602673	     -0.36266614	      3.73122045	      9.33056170	     31.64745208	      0.00000000	      0.00000000	     67.32632550	     -0.91757576	    -21.92315188	     20.96000074	     34.64421048	      0.00000000	      0.00000000
      7.35000000	     88.46255820	     55.85338806	     88.49550606	      0.39268879	      0.59774465	      0.81054912	     64.46862983	    -10.43261854	     -7.37524397	     23.94633740	      0.41794243	     -6.62319297	      0.00000000	      0.00000000	     62.30810553	    -15.31176517	    -14.25952415	     23.24405058	      0.40568521	     -4.89070399	      0.00000000	      0.00000000	    -53.26329203	     -7.80707046	     -1.06116527	     68.19490480	     -0.58763905	      3.94427040	     10.36973165	     32.65096018	      0.00000000	      0.00000000	     66.34703352	     -1.11748711	    -20.17186165	     21.94272918	     35.39103458	      0.00000000	      0.00000000
      7.35500000	     88.28739607	     56.24469283	     88.39830654	      0.39208054	      0.59845565	      0.81175917	     63.95321404	    -10.23348928	     -7.26874044	     23.71333497	      0.41387577	     -6.84177951	      0.00000000	      0.00000000	     61.67329253	    -15.50692798	    -14.75828261	     23.05989292	      0.40247106	     -5.03915319	      0.00000000	      0.00000000	    -53.49246762	     -8.14200227	     -0.90972721	     67.67744101	     -0.84606434	      4.66768050	     10.92496601	     33.48670134	      0.00000000	      0.00000000	     66.14708591	     -1.37755836	    -18.52713120	     21.72384187	     36.02346206	      0.00000000	      0.00000000
      7.36000000	     88.18089279	     56.33227376	     88.35322522	      0.39193774	      0.59901597	      0.81195801	     63.90889327	    -10.12624497	     -7.13135644	     23.77826927	      0.41500909	     -6.71108131	      0.00000000	      0.00000000	     61.58749225	    -15.65868440	    -14.93102625	     23.20348674	      0.40497724	     -4.98849469	      0.00000000	      0.00000000	    -53.30093830	     -8.27696322	     -0.96152226	     68.31289435	     -0.36229636	      4.44251946	      9.26991835	     32.64725614	      0.00000000	      0.00000000	     66.02855484	     -1.30281567	    -19.96944296	     21.82632070	     35.47513636	      0.00000000	      0.00000000
      7.36500000	     88.18653591	     56.57274995	     88.31387156	      0.39154837	      0.59927136	      0.81264741	     63.59214238	    -10.08273649	     -7.17350018	     23.69768414	      0.41360261	     -6.77178000	      0.00000000	      0.00000000	     61.22599103	    -15.68225153	    -14.99035893	     23.06285786	      0.40252280	     -4.94429949	      0.00000000	      0.00000000	    -53.28991644	     -8.33611627	     -0.89613376	     68.20849892	     -0.30284993	      4.02533972	      9.05005144	     32.86075921	      0.00000000	      0.00000000	     65.75402480	     -1.26347227	    -19.56754978	     22.01105215	     35.68259008	      0.00000000	      0.00000000
      7.37000000	     88.20031753	     56.71303372	     88.31834676	      0.39117443	      0.59941741	      0.81312443	     63.38876055	    -10.09016948	     -7.24910389	     23.66027255	      0.41294966	     -6.76941196	      0.00000000	      0.00000000	     61.00761356	    -15.65679778	    -14.96021740	     22.96638304	      0.40083900	     -4.97021310	      0.00000000	      0.00000000	    -53.18012024	     -8.31535134	     -0.85967176	     68.02853517	     -0.12640599	      2.43613867	      9.19203161	     31.40814602	      0.00000000	      0.00000000	     66.28426378	     -0.82270206	    -22.15134714	     21.21928311	     34.49158792	      0.00000000	      0.00000000
      7.37500000	     88.10956434	     56.92374818	     88.36422463	      0.39092048	      0.59979675	      0.81358562	     63.17451063	    -10.07004067	     -7.18399892	     23.68440843	      0.41337091	     -6.70554220	      0.00000000	      0.00000000	     60.69807641	    -15.65324498	    -14.99119661	     22.87385939	      0.39922416	     -4.93899550	      0.00000000	      0.00000000	    -53.13427052	     -8.43892693	     -0.81791300	     67.63508646	     -0.19455014	      2.48547682	      9.38748666	     32.24304313	      0.00000000	      0.00000000	     65.85968091	     -1.16095737	    -20.25538380	     21.20068466	     35.14749008	      0.00000000	      0.00000000
      7.38000000	     88.14551714	     57.23790976	     88.33978239	      0.39047552	      0.59996035	      0.81427505	     62.80846260	    -10.06890211	     -7.28425059	     23.68079087	      0.41330777	     -6.70945306	      0.00000000	      0.00000000	     60.31353524	    -15.66393750	    -15.02975794	     22.83708143	      0.39858226	     -4.96385516	      0.00000000	      0.00000000	    -53.20171483	     -8.40943592	     -0.83684294	     67.71820781	     -0.03207696	      2.53548828	      8.86259159	     32.03888454	      0.00000000	      0.00000000	     65.28130887	     -1.18675713	    -20.32567202	     21.87945144	     35.08488218	      0.00000000	      0.00000000
      7.38500000	     88.21060799	     57.48305366	     88.37717608	      0.39014462	      0.60007348	      0.81474171	     62.53853853	    -10.14292840	     -7.43942795	     23.75515945	      0.41460575	     -6.60909078	      0.00000000	      0.00000000	     60.03501661	    -15.59586873	    -14.93260434	     22.79191852	      0.39779402	     -4.94333979	      0.00000000	      0.00000000	    -53.18296902	     -8.34925377	     -0.80597711	     67.28355293	     -0.11877205	      2.81078146	      9.16075619	     32.39363158	      0.00000000	      0.00000000	     64.99815977	     -1.27659654	    -19.68714495	     21.87355693	     35.32850941	      0.00000000	      0.00000000
